<svg xmlns="http://www.w3.org/2000/svg" xmlns:xlink="http://www.w3.org/1999/xlink" viewBox="0 0 180.45 45.21"><defs><style>.a{fill:#fff;}.b{mask:url(#a);}.c{fill:#ffd400;}.d{mask:url(#b);}.e{fill:#66b24c;}.f{mask:url(#c);}.g{fill:#004fb6;}.h{mask:url(#d);}.i{mask:url(#e);}.j{mask:url(#f);}.k{mask:url(#g);}.l{mask:url(#h);}</style><mask id="a" x="19.36" y="0" width="19.99" height="40.46" maskUnits="userSpaceOnUse"><g transform="translate(-421.77 -489.39)"><path class="a" d="M451.15,497l-2.45,25.35q2.43-.27,4.88-.42L451.15,497Z"/></g></mask><mask id="b" x="21.83" y="0.03" width="23.44" height="39.99" maskUnits="userSpaceOnUse"><g transform="translate(-421.77 -489.39)"><path class="a" d="M451.16,497l2.42,24.88q2.95-.17,5.9-.18V497h-8.33Z"/></g></mask><mask id="c" x="0" y="0" width="36.93" height="45.21" maskUnits="userSpaceOnUse"><g transform="translate(-421.77 -489.39)"><path class="a" d="M429.33,497v30.1a68.11,68.11,0,0,1,19.35-4.75L451.15,497H429.33Z"/></g></mask><mask id="d" x="96.71" y="0.17" width="24.03" height="39.69" maskUnits="userSpaceOnUse"><g transform="translate(-421.77 -489.39)"><path class="a" d="M526,497.12v.78c.53.1,2.45.65,2.45,2v21.79H535V497.12H526Z"/></g></mask><mask id="e" x="37.96" y="0.17" width="43.27" height="39.69" maskUnits="userSpaceOnUse"><g transform="translate(-421.77 -489.39)"><path class="a" d="M475.15,497.12v.78c.78.16,2.48.64,1.79,2.17l-9.65,21.62h5.1l3-6.74H486.1l2.64,6.74h6.7l-9.58-24.57H475.15Zm6,5.11,3.79,9.67h-8.12Z"/></g></mask><mask id="f" x="137.19" y="0.17" width="43.27" height="39.69" maskUnits="userSpaceOnUse"><g transform="translate(-421.77 -489.39)"><path class="a" d="M574.37,497.12v.78c.78.16,2.48.64,1.79,2.17l-9.65,21.62h5.1l3-6.74h10.69l2.64,6.74h6.71l-9.59-24.57Zm6,5.11,3.79,9.67H576l4.33-9.67Z"/></g></mask><mask id="g" x="109.48" y="0.17" width="43.69" height="39.69" maskUnits="userSpaceOnUse"><g transform="translate(-421.77 -489.39)"><path class="a" d="M562.54,497.12l-7.5,18-7.14-18h-9.09v.78a3.38,3.38,0,0,1,2.77,2l8.63,21.79h6.95l10.23-24.58h-4.84Z"/></g></mask><mask id="h" x="64.62" y="0.17" width="43.69" height="39.69" maskUnits="userSpaceOnUse"><g transform="translate(-421.77 -489.39)"><path class="a" d="M517.69,497.12l-7.5,18-7.14-18h-9.1v.78a3.38,3.38,0,0,1,2.77,2l8.63,21.79h6.95l10.24-24.58h-4.84Z"/></g></mask></defs><title>Aviva logo</title><g class="b"><path class="c" d="M441.14,529.86h20V489.4h-20Z" transform="translate(-421.77 -489.39)"/></g><g class="d"><path class="e" d="M443.6,529.41H467v-40H443.6Z" transform="translate(-421.77 -489.39)"/></g><g class="f"><path class="g" d="M421.77,534.61H458.7V489.39H421.77Z" transform="translate(-421.77 -489.39)"/></g><g class="h"><path class="g" d="M518.48,529.25h24V489.56h-24Z" transform="translate(-421.77 -489.39)"/></g><g class="i"><path class="g" d="M459.73,529.25H503V489.56H459.73Z" transform="translate(-421.77 -489.39)"/></g><g class="j"><path class="g" d="M559,529.25h43.27V489.56H559Z" transform="translate(-421.77 -489.39)"/></g><g class="k"><path class="g" d="M531.25,529.25h43.69V489.56H531.25Z" transform="translate(-421.77 -489.39)"/></g><g class="l"><path class="g" d="M486.39,529.25h43.69V489.56H486.39Z" transform="translate(-421.77 -489.39)"/></g></svg>